<?xml version="1.0" encoding="UTF-8" standalone="no"?>
<!-- Created with Inkscape (http://www.inkscape.org/) -->

<svg
   xmlns:osb="http://www.openswatchbook.org/uri/2009/osb"
   xmlns:dc="http://purl.org/dc/elements/1.1/"
   xmlns:cc="http://creativecommons.org/ns#"
   xmlns:rdf="http://www.w3.org/1999/02/22-rdf-syntax-ns#"
   xmlns:svg="http://www.w3.org/2000/svg"
   xmlns="http://www.w3.org/2000/svg"
   xmlns:sodipodi="http://sodipodi.sourceforge.net/DTD/sodipodi-0.dtd"
   xmlns:inkscape="http://www.inkscape.org/namespaces/inkscape"
   width="117.02703mm"
   height="15.783254mm"
   viewBox="0 0 117.02703 15.783256"
   version="1.1"
   id="svg8"
   inkscape:version="0.92.3 (2405546, 2018-03-11)"
   sodipodi:docname="drawing1.svg">
  <defs
     id="defs2">
    <linearGradient
       id="linearGradient2279"
       osb:paint="solid">
      <stop
         style="stop-color:#000000;stop-opacity:1;"
         offset="0"
         id="stop2277" />
    </linearGradient>
    <linearGradient
       id="linearGradient2562"
       osb:paint="solid">
      <stop
         style="stop-color:#000000;stop-opacity:1;"
         offset="0"
         id="stop2560" />
    </linearGradient>
    <linearGradient
       id="linearGradient2480"
       osb:paint="solid">
      <stop
         style="stop-color:#000000;stop-opacity:1;"
         offset="0"
         id="stop2478" />
    </linearGradient>
    <linearGradient
       id="linearGradient1018"
       osb:paint="solid">
      <stop
         style="stop-color:#000000;stop-opacity:1;"
         offset="0"
         id="stop1016" />
    </linearGradient>
  </defs>
  <sodipodi:namedview
     id="base"
     pagecolor="#ffffff"
     bordercolor="#666666"
     borderopacity="1.0"
     inkscape:pageopacity="0.0"
     inkscape:pageshadow="2"
     inkscape:zoom="1.979899"
     inkscape:cx="316.70182"
     inkscape:cy="33.894301"
     inkscape:document-units="mm"
     inkscape:current-layer="flowRoot823"
     showgrid="false"
     inkscape:window-width="1920"
     inkscape:window-height="1057"
     inkscape:window-x="-8"
     inkscape:window-y="-8"
     inkscape:window-maximized="1" />
  <metadata
     id="metadata5">
    <rdf:RDF>
      <cc:Work
         rdf:about="">
        <dc:format>image/svg+xml</dc:format>
        <dc:type
           rdf:resource="http://purl.org/dc/dcmitype/StillImage" />
        <dc:title />
      </cc:Work>
    </rdf:RDF>
  </metadata>
  <g
     inkscape:label="Layer 1"
     inkscape:groupmode="layer"
     id="layer1"
     transform="translate(7.4822991,-37.209422)">
    <g
       aria-label="senpaiKawaii"
       transform="scale(0.26458333)"
       style="font-style:normal;font-variant:normal;font-weight:bold;font-stretch:normal;font-size:40px;line-height:1.25;font-family:bungee;-inkscape-font-specification:'bungee, Bold';font-variant-ligatures:normal;font-variant-caps:normal;font-variant-numeric:normal;font-feature-settings:normal;text-align:start;letter-spacing:0px;word-spacing:0px;writing-mode:lr-tb;text-anchor:start;fill:#000000;fill-opacity:1"
       id="flowRoot823">
      <path
         d="m 3.5136031,176.80055 q 0,5.10715 -4.5788117,8.24773 -4.5788117,3.11125 -12.5330294,3.11125 -4.402703,0 -7.98357,-0.82185 -3.580865,-0.82184 -5.752866,-1.81978 v -8.688 h 0.968597 q 0.792485,0.55769 1.819783,1.23275 1.056648,0.64574 2.964486,1.40887 1.643676,0.67509 3.727623,1.17405 2.083948,0.46963 4.461406,0.46963 3.111245,0 4.6081635,-0.67508 1.4969195,-0.70443 1.4969195,-2.05459 0,-1.2034 -0.8805404,-1.73175 -0.8805417,-0.55767 -3.3460556,-1.05664 -1.174054,-0.26416 -3.199297,-0.55767 -1.995893,-0.32287 -3.639568,-0.76314 -4.490757,-1.17405 -6.662758,-3.63956 -2.172,-2.49488 -2.172,-6.19315 0,-4.75491 4.490757,-7.89551 4.520108,-3.16995 12.327569,-3.16995 3.6982707,0 7.0736775,0.76316 3.40475718,0.73377 5.312595,1.58495 v 8.33579 H 1.1067926 q -2.3481083,-1.61433 -5.3712985,-2.61226 -2.9938389,-1.02731 -6.0757311,-1.02731 -2.553569,0 -4.31465,0.70443 -1.731729,0.70443 -1.731729,1.9959 0,1.17405 0.792485,1.79042 0.792488,0.61638 3.727623,1.23278 1.614326,0.32285 3.4634615,0.6457 1.8784858,0.29353 3.7569729,0.76316 4.16789214,1.08599 6.1637844,3.4341 1.9958923,2.31876 1.9958923,5.81157 z"
         style="fill:none;fill-opacity:0.010582;stroke:#ffffff;stroke-width:2.26771657;stroke-miterlimit:4;stroke-dasharray:none;stroke-opacity:1;paint-order:stroke fill markers;stroke-linejoin:round"
         id="path831"
         inkscape:connector-curvature="0" />
      <path
         d="M 43.020533,172.72071 H 18.835012 q 0.234811,3.87438 2.93513,5.92898 2.729681,2.0546 8.012934,2.0546 3.346052,0 6.48664,-1.20341 3.140606,-1.20341 4.960379,-2.58291 h 1.174054 v 8.48253 q -3.580863,1.43821 -6.750801,2.08395 -3.169955,0.64572 -7.014977,0.64572 -9.920764,0 -15.204008,-4.46141 -5.2832446,-4.4614 -5.2832446,-12.70914 0,-8.15968 4.9897296,-12.91459 5.019083,-4.78427 13.736434,-4.78427 8.042268,0 12.092767,4.07984 4.050484,4.05048 4.050484,11.68184 z m -10.50779,-6.19314 q -0.08807,-3.31671 -1.643675,-4.98973 -1.555613,-1.67302 -4.842966,-1.67302 -3.052541,0 -5.01909,1.58498 -1.966541,1.58496 -2.201352,5.07777 z"
         style="fill:#000000;fill-opacity:0;stroke:#faffff;stroke-width:2.26771657;stroke-miterlimit:4;stroke-dasharray:none;stroke-opacity:1;paint-order:stroke fill markers;stroke-linejoin:round"
         id="path833"
         inkscape:connector-curvature="0" />
      <path
         d="M 83.584112,187.24965 H 72.95891 v -16.34872 q 0,-1.99591 -0.205461,-3.96244 -0.205447,-1.99588 -0.704433,-2.93513 -0.58702,-1.086 -1.731724,-1.58497 -1.115356,-0.49897 -3.14059,-0.49897 -1.438214,0 -2.935143,0.46962 -1.467564,0.46963 -3.199288,1.49691 v 23.3637 h -10.56649 v -32.9616 h 10.56649 v 3.63959 q 2.81773,-2.20137 5.400648,-3.37542 2.61227,-1.17406 5.782208,-1.17406 5.341952,0 8.335793,3.11126 3.023192,3.11124 3.023192,9.30437 z"
         style="fill:#000000;fill-opacity:0;stroke:#faffff;stroke-width:2.26771657;stroke-miterlimit:4;stroke-dasharray:none;stroke-opacity:1;paint-order:stroke fill markers;stroke-linejoin:round"
         id="path835"
         inkscape:connector-curvature="0" />
      <path
         d="m 127.72855,170.31389 q 0,4.07985 -1.26211,7.42591 -1.23276,3.34604 -3.25801,5.51805 -2.11329,2.2894 -4.78426,3.46345 -2.67097,1.17405 -5.72351,1.17405 -2.81773,0 -4.78428,-0.61636 -1.96654,-0.58704 -4.02114,-1.67303 V 199.3424 H 93.328756 v -45.05435 h 10.566484 v 3.43413 q 2.43616,-1.9372 4.96038,-3.14062 2.55357,-1.2034 5.87027,-1.2034 6.16378,0 9.56855,4.52012 3.43411,4.52011 3.43411,12.41561 z m -10.88936,0.20546 q 0,-4.81361 -1.64368,-6.98561 -1.64367,-2.172 -5.19518,-2.172 -1.49692,0 -3.08189,0.46961 -1.58498,0.44028 -3.0232,1.29147 v 16.58351 q 1.05666,0.41092 2.26006,0.52833 1.20341,0.11742 2.37746,0.11742 4.19725,0 6.25183,-2.43615 2.0546,-2.46552 2.0546,-7.39655 z"
         style="fill:#000000;fill-opacity:0;stroke:#faffff;stroke-width:2.26771657;stroke-miterlimit:4;stroke-dasharray:none;stroke-opacity:1;paint-order:stroke fill markers;stroke-linejoin:round"
         id="path837"
         inkscape:connector-curvature="0" />
      <path
         d="m 155.31883,178.64969 v -6.86821 q -2.14266,0.17609 -4.63752,0.49896 -2.49487,0.29351 -3.78632,0.70443 -1.58499,0.49897 -2.43617,1.46758 -0.82184,0.93923 -0.82184,2.49486 0,1.02729 0.1761,1.67302 0.17612,0.64574 0.88056,1.23276 0.67507,0.58703 1.61432,0.88054 0.93925,0.26416 2.93513,0.26416 1.58498,0 3.19931,-0.64572 1.64366,-0.64574 2.87643,-1.70238 z m 0,5.10713 q -0.8512,0.64573 -2.1133,1.55562 -1.26211,0.90989 -2.37746,1.43822 -1.55563,0.70443 -3.22865,1.0273 -1.67304,0.35221 -3.66891,0.35221 -4.69622,0 -7.86618,-2.90578 -3.16994,-2.90577 -3.16994,-7.4259 0,-3.61021 1.61431,-5.89962 1.61433,-2.28941 4.57882,-3.61021 2.93513,-1.32082 7.27914,-1.87849 4.34399,-0.55768 9.01086,-0.82184 v -0.1761 q 0,-2.72968 -2.23069,-3.75697 -2.23072,-1.05665 -6.57471,-1.05665 -2.61227,0 -5.57676,0.93923 -2.96449,0.90989 -4.25595,1.40887 h -0.96859 v -7.95423 q 1.67303,-0.44026 5.43,-1.02728 3.78633,-0.61638 7.57265,-0.61638 9.01088,0 13.00266,2.78837 4.02114,2.75904 4.02114,8.68801 v 22.42445 h -10.47844 z"
         style="fill:#000000;fill-opacity:0;stroke:#faffff;stroke-width:2.26771657;stroke-miterlimit:4;stroke-dasharray:none;stroke-opacity:1;paint-order:stroke fill markers;stroke-linejoin:round"
         id="path839"
         inkscape:connector-curvature="0" />
      <path
         d="m 186.07904,187.24965 h -10.56648 v -32.9616 h 10.56648 z m 0.29351,-37.65781 h -11.1535 v -8.01292 h 11.1535 z"
         style="fill:#000000;fill-opacity:0;stroke:#faffff;stroke-width:2.26771657;stroke-miterlimit:4;stroke-dasharray:none;stroke-opacity:1;paint-order:stroke fill markers;stroke-linejoin:round"
         id="path841"
         inkscape:connector-curvature="0" />
      <path
         d="m 237.44393,187.24965 h -13.8245 l -13.06136,-17.49343 -2.64161,3.19931 v 14.29412 h -11.27093 v -43.7042 h 11.27093 v 19.78283 l 15.61493,-19.78283 h 13.06134 l -17.08249,20.22311 z"
         style="fill:#000000;fill-opacity:0;stroke:#faffff;stroke-width:2.26771657;stroke-miterlimit:4;stroke-dasharray:none;stroke-opacity:1;paint-order:stroke fill markers;stroke-linejoin:round"
         id="path843"
         inkscape:connector-curvature="0" />
      <path
         d="m 262.39258,178.64969 v -6.86821 q -2.14266,0.17609 -4.63752,0.49896 -2.49486,0.29351 -3.78632,0.70443 -1.58499,0.49897 -2.43617,1.46758 -0.82184,0.93923 -0.82184,2.49486 0,1.02729 0.17612,1.67302 0.1761,0.64574 0.88054,1.23276 0.67507,0.58703 1.61432,0.88054 0.93925,0.26416 2.93513,0.26416 1.58498,0 3.19931,-0.64572 1.64367,-0.64574 2.87643,-1.70238 z m 0,5.10713 q -0.8512,0.64573 -2.1133,1.55562 -1.2621,0.90989 -2.37746,1.43822 -1.55563,0.70443 -3.22865,1.0273 -1.67304,0.35221 -3.66891,0.35221 -4.69622,0 -7.86617,-2.90578 -3.16994,-2.90577 -3.16994,-7.4259 0,-3.61021 1.61431,-5.89962 1.61433,-2.28941 4.57882,-3.61021 2.93513,-1.32082 7.27913,-1.87849 4.34399,-0.55768 9.01086,-0.82184 v -0.1761 q 0,-2.72968 -2.23069,-3.75697 -2.23072,-1.05665 -6.57471,-1.05665 -2.61226,0 -5.57675,0.93923 -2.9645,0.90989 -4.25595,1.40887 h -0.96859 v -7.95423 q 1.67302,-0.44026 5.43,-1.02728 3.78632,-0.61638 7.57264,-0.61638 9.01088,0 13.00266,2.78837 4.02114,2.75904 4.02114,8.68801 v 22.42445 h -10.47844 z"
         style="fill:#000000;fill-opacity:0;stroke:#faffff;stroke-width:2.26771657;stroke-miterlimit:4;stroke-dasharray:none;stroke-opacity:1;paint-order:stroke fill markers;stroke-linejoin:round"
         id="path845"
         inkscape:connector-curvature="0" />
      <path
         d="m 335.15459,154.28805 -10.21428,32.9616 h -11.2122 l -6.72148,-22.21899 -6.60405,22.21899 h -11.35896 l -10.12623,-32.9616 h 11.09482 l 5.63546,22.71796 7.04433,-22.71796 h 9.36309 l 6.69209,22.71796 5.54741,-22.71796 z"
         style="fill:#000000;fill-opacity:0;stroke:#faffff;stroke-width:2.26771657;stroke-miterlimit:4;stroke-dasharray:none;stroke-opacity:1;paint-order:stroke fill markers;stroke-linejoin:round"
         id="path847"
         inkscape:connector-curvature="0" />
      <path
         d="m 361.48275,178.64969 v -6.86821 q -2.14264,0.17609 -4.63752,0.49896 -2.49485,0.29351 -3.78632,0.70443 -1.58497,0.49897 -2.43615,1.46758 -0.82184,0.93923 -0.82184,2.49486 0,1.02729 0.1761,1.67302 0.17612,0.64574 0.88056,1.23276 0.67507,0.58703 1.61432,0.88054 0.93924,0.26416 2.93513,0.26416 1.58497,0 3.19929,-0.64572 1.64368,-0.64574 2.87643,-1.70238 z m 0,5.10713 q -0.85118,0.64573 -2.11328,1.55562 -1.26211,0.90989 -2.37747,1.43822 -1.55563,0.70443 -3.22865,1.0273 -1.67303,0.35221 -3.6689,0.35221 -4.69623,0 -7.86619,-2.90578 -3.16992,-2.90577 -3.16992,-7.4259 0,-3.61021 1.61429,-5.89962 1.61433,-2.28941 4.57882,-3.61021 2.93514,-1.32082 7.27915,-1.87849 4.34399,-0.55768 9.01086,-0.82184 v -0.1761 q 0,-2.72968 -2.2307,-3.75697 -2.23071,-1.05665 -6.5747,-1.05665 -2.61227,0 -5.57677,0.93923 -2.96449,0.90989 -4.25594,1.40887 h -0.96859 v -7.95423 q 1.67303,-0.44026 5.42999,-1.02728 3.78632,-0.61638 7.57266,-0.61638 9.01086,0 13.00266,2.78837 4.02114,2.75904 4.02114,8.68801 v 22.42445 h -10.47846 z"
         style="fill:#000000;fill-opacity:0;stroke:#faffff;stroke-width:2.26771657;stroke-miterlimit:4;stroke-dasharray:none;stroke-opacity:1;paint-order:stroke fill markers;stroke-linejoin:round"
         id="path849"
         inkscape:connector-curvature="0" />
      <path
         d="m 392.24298,187.24965 h -10.56649 v -32.9616 h 10.56649 z m 0.29351,-37.65781 h -11.15351 v -8.01292 h 11.15351 z"
         style="fill:#000000;fill-opacity:0;stroke:#faffff;stroke-width:2.26771657;stroke-miterlimit:4;stroke-dasharray:none;stroke-opacity:1;paint-order:stroke fill markers;stroke-linejoin:round"
         id="path851"
         inkscape:connector-curvature="0" />
      <path
         d="m 412.78894,187.24965 h -10.56649 v -32.9616 h 10.56649 z m 0.29351,-37.65781 h -11.15353 v -8.01292 h 11.15353 z"
         style="fill:#000000;fill-opacity:0;stroke:#faffff;stroke-width:2.26771657;stroke-miterlimit:4;stroke-dasharray:none;stroke-opacity:1;paint-order:stroke fill markers;stroke-linejoin:round"
         id="path853"
         inkscape:connector-curvature="0" />
    </g>
  </g>
</svg>
