<?xml version="1.0" encoding="UTF-8" standalone="no"?>
<!-- Created with Inkscape (http://www.inkscape.org/) -->

<svg
   xmlns:dc="http://purl.org/dc/elements/1.1/"
   xmlns:cc="http://creativecommons.org/ns#"
   xmlns:rdf="http://www.w3.org/1999/02/22-rdf-syntax-ns#"
   xmlns:svg="http://www.w3.org/2000/svg"
   xmlns="http://www.w3.org/2000/svg"
   xmlns:sodipodi="http://sodipodi.sourceforge.net/DTD/sodipodi-0.dtd"
   xmlns:inkscape="http://www.inkscape.org/namespaces/inkscape"
   width="37.816074mm"
   height="11.663413mm"
   viewBox="0 0 37.816075 11.663413"
   version="1.1"
   id="svg1390"
   inkscape:version="0.92.3 (2405546, 2018-03-11)"
   sodipodi:docname="drawing.svg">
  <defs
     id="defs1384" />
  <sodipodi:namedview
     id="base"
     pagecolor="#ffffff"
     bordercolor="#666666"
     borderopacity="1.0"
     inkscape:pageopacity="0.0"
     inkscape:pageshadow="2"
     inkscape:zoom="2.8"
     inkscape:cx="87.785296"
     inkscape:cy="-69.182627"
     inkscape:document-units="mm"
     inkscape:current-layer="layer1"
     showgrid="false"
     inkscape:window-width="1920"
     inkscape:window-height="1057"
     inkscape:window-x="-8"
     inkscape:window-y="-8"
     inkscape:window-maximized="1" />
  <metadata
     id="metadata1387">
    <rdf:RDF>
      <cc:Work
         rdf:about="">
        <dc:format>image/svg+xml</dc:format>
        <dc:type
           rdf:resource="http://purl.org/dc/dcmitype/StillImage" />
        <dc:title></dc:title>
      </cc:Work>
    </rdf:RDF>
  </metadata>
  <g
     inkscape:label="Layer 1"
     inkscape:groupmode="layer"
     id="layer1"
     transform="translate(-22.170664,-80.597511)">
    <flowRoot
       xml:space="preserve"
       id="flowRoot1935"
       style="font-style:normal;font-variant:normal;font-weight:bold;font-stretch:normal;font-size:40px;line-height:1.25;font-family:bungee;-inkscape-font-specification:'bungee, Bold';font-variant-ligatures:normal;font-variant-caps:normal;font-variant-numeric:normal;font-feature-settings:normal;text-align:start;letter-spacing:0px;word-spacing:0px;writing-mode:lr-tb;text-anchor:start;fill:#000000;fill-opacity:1;stroke:none"
       transform="scale(0.26458333)"><flowRegion
         id="flowRegion1937"><rect
           id="rect1939"
           width="608.57141"
           height="234.28572"
           x="82.85714"
           y="139.66254" /></flowRegion><flowPara
         id="flowPara1941"></flowPara></flowRoot>    <g
       aria-label="snPk"
       style="font-style:normal;font-variant:normal;font-weight:bold;font-stretch:normal;font-size:10.58333302px;line-height:1.25;font-family:Arial;-inkscape-font-specification:'Arial Bold';font-variant-ligatures:normal;font-variant-caps:normal;font-variant-numeric:normal;font-feature-settings:normal;text-align:start;letter-spacing:0px;word-spacing:0px;writing-mode:lr-tb;text-anchor:start;fill:#ffffff;fill-opacity:1;stroke:none;stroke-width:0.26458332;stroke-opacity:1"
       id="text1945"
       transform="matrix(1.5147707,0,0,1.5147707,-11.412808,-47.493222)">
      <path
         d="m 22.170664,90.571106 1.457275,-0.222209 q 0.09302,0.423747 0.377238,0.645956 0.28422,0.217041 0.795817,0.217041 0.563273,0 0.847494,-0.206706 0.191202,-0.144694 0.191202,-0.387573 0,-0.165365 -0.103352,-0.273885 -0.108521,-0.103353 -0.485759,-0.191203 -1.756999,-0.387573 -2.227254,-0.707967 -0.651123,-0.444417 -0.651123,-1.235067 0,-0.713135 0.563273,-1.198893 0.563273,-0.485759 1.746663,-0.485759 1.126547,0 1.674317,0.366903 0.54777,0.366903 0.754476,1.085205 l -1.369426,0.253215 q -0.08785,-0.320394 -0.335897,-0.490926 -0.242879,-0.170533 -0.697631,-0.170533 -0.573609,0 -0.821656,0.160197 -0.165364,0.113688 -0.165364,0.294556 0,0.155029 0.144694,0.26355 0.19637,0.144694 1.353922,0.408244 1.16272,0.263549 1.62264,0.645955 0.454753,0.387573 0.454753,1.080037 0,0.754476 -0.630453,1.297079 -0.630452,0.542602 -1.865519,0.542602 -1.121378,0 -1.777669,-0.454752 -0.651123,-0.454753 -0.852661,-1.235067 z"
         style="fill:#ffffff;fill-opacity:1;stroke:none;stroke-width:0.26458332;stroke-opacity:1"
         id="path1947"
         inkscape:connector-curvature="0" />
      <path
         d="m 33.565317,92.136902 h -1.452108 v -2.800863 q 0,-0.888834 -0.09302,-1.147216 -0.09302,-0.26355 -0.304891,-0.408244 -0.206706,-0.144694 -0.501262,-0.144694 -0.377238,0 -0.676961,0.206705 -0.299723,0.206706 -0.413411,0.547771 -0.108521,0.341064 -0.108521,1.260905 v 2.485636 h -1.452108 v -5.488037 h 1.348755 v 0.806152 q 0.718303,-0.930176 1.808675,-0.930176 0.480591,0 0.8785,0.1757 0.397908,0.170533 0.599446,0.43925 0.206706,0.268717 0.284221,0.609782 0.08268,0.341064 0.08268,0.976684 z"
         style="fill:#ffffff;fill-opacity:1;stroke:none;stroke-width:0.26458332;stroke-opacity:1"
         id="path1949"
         inkscape:connector-curvature="0" />
      <path
         d="m 35.053598,92.136902 v -7.575765 h 2.45463 q 1.395264,0 1.819011,0.113688 0.651123,0.170532 1.090372,0.744141 0.43925,0.568441 0.43925,1.472778 0,0.697632 -0.253215,1.173055 -0.253214,0.475423 -0.645955,0.749308 -0.387573,0.268718 -0.790649,0.356568 -0.547771,0.10852 -1.586467,0.10852 H 36.58322 v 2.857707 z m 1.529622,-6.294189 v 2.149739 h 0.837158 q 0.904338,0 1.209229,-0.118856 0.304891,-0.118855 0.475423,-0.37207 0.1757,-0.253214 0.1757,-0.589111 0,-0.413412 -0.242879,-0.682129 -0.24288,-0.268718 -0.61495,-0.335897 -0.273885,-0.05168 -1.100708,-0.05168 z"
         style="fill:#ffffff;fill-opacity:1;stroke:none;stroke-width:0.26458332;stroke-opacity:1"
         id="path1951"
         inkscape:connector-curvature="0" />
      <path
         d="m 42.060922,92.136902 v -7.575765 h 1.452108 v 4.020426 l 1.700154,-1.932698 h 1.788005 l -1.875855,2.005045 2.010213,3.482992 h -1.565795 l -1.379761,-2.464966 -0.676961,0.707967 v 1.756999 z"
         style="fill:#ffffff;fill-opacity:1;stroke:none;stroke-width:0.26458332;stroke-opacity:1"
         id="path1953"
         inkscape:connector-curvature="0" />
    </g>
  </g>
</svg>
